<svg xmlns="http://www.w3.org/2000/svg" width="20.625" height="22" viewBox="0 0 20.625 22">
  <path id="Icon_awesome-transgender-alt" data-name="Icon awesome-transgender-alt" d="M20.109,0H16.715a.517.517,0,0,0-.365.881l.726.726L13.608,5.075a6.194,6.194,0,0,0-6.591,0l-.709-.709.851-.851a.516.516,0,0,0,0-.73L5.943,1.568a.516.516,0,0,0-.73,0l-.851.851L3.545,1.6,4.271.877A.511.511,0,0,0,3.91,0H.516A.517.517,0,0,0,0,.516V3.91a.517.517,0,0,0,.881.365l.726-.726.816.816-.851.851a.516.516,0,0,0,0,.73L2.789,7.163a.516.516,0,0,0,.73,0l.851-.851.709.709a6.1,6.1,0,0,0-.954,3.291,6.189,6.189,0,0,0,4.813,6.033v1.186H7.391a.517.517,0,0,0-.516.516v1.719a.517.517,0,0,0,.516.516H8.938v1.2A.517.517,0,0,0,9.453,22h1.719a.517.517,0,0,0,.516-.516v-1.2h1.547a.517.517,0,0,0,.516-.516V18.047a.517.517,0,0,0-.516-.516H11.688V16.345A6.189,6.189,0,0,0,15.55,7.017l3.468-3.468.726.726a.516.516,0,0,0,.881-.365V.516A.517.517,0,0,0,20.109,0Zm-9.8,13.75a3.438,3.438,0,1,1,3.437-3.437A3.442,3.442,0,0,1,10.313,13.75Z" fill="#5c1ba6"/>
</svg>
