<svg xmlns="http://www.w3.org/2000/svg" width="29.333" height="22" viewBox="0 0 29.333 22">
  <path id="Icon_metro-profile" data-name="Icon metro-profile" d="M31.737,10.855H29.686V7.777l-4.234-.065.022,3.143H12.749l.087-3.143-4.146.065V10.92l-2.1-.065a2.1,2.1,0,0,0-2.1,2.1V27.617a2.1,2.1,0,0,0,2.1,2.1H31.737a2.1,2.1,0,0,0,2.1-2.1V12.95A2.1,2.1,0,0,0,31.737,10.855ZM26.5,8.76h2.1v4.19H26.5ZM12.88,15.9c1.266,0,2.292,1.348,2.292,3.012S14.145,21.92,12.88,21.92s-2.292-1.348-2.292-3.012S11.614,15.9,12.88,15.9ZM9.737,8.76h2.1v4.19h-2.1ZM8.34,25.467s.248-1.993.813-2.369a8.035,8.035,0,0,1,2.19-.626S12.4,23.6,12.845,23.6s1.5-1.126,1.5-1.126a8.01,8.01,0,0,1,2.191.626c.663.442.829,2.369.829,2.369H8.34Zm21.3-.993H20.213V23.426h9.429Zm0-2.1H20.213V21.331h9.429Zm0-2.1H20.213V19.236h9.429Zm0-2.1H20.213V17.141h9.429Z" transform="translate(-4.499 -7.712)" fill="#5c1ba6"/>
</svg>
