<svg xmlns="http://www.w3.org/2000/svg" width="19.25" height="22" viewBox="0 0 19.25 22">
  <path id="Icon_awesome-calendar-day" data-name="Icon awesome-calendar-day" d="M0,19.938A2.063,2.063,0,0,0,2.063,22H17.188a2.063,2.063,0,0,0,2.063-2.062V8.25H0Zm2.75-8.25A.69.69,0,0,1,3.438,11H7.563a.69.69,0,0,1,.688.688v4.125a.69.69,0,0,1-.687.688H3.438a.69.69,0,0,1-.687-.687ZM17.188,2.75H15.125V.688A.69.69,0,0,0,14.438,0H13.063a.69.69,0,0,0-.687.688V2.75h-5.5V.688A.69.69,0,0,0,6.188,0H4.813a.69.69,0,0,0-.687.688V2.75H2.063A2.063,2.063,0,0,0,0,4.813V6.875H19.25V4.813A2.063,2.063,0,0,0,17.188,2.75Z" fill="#5c1ba6"/>
</svg>
