<svg xmlns="http://www.w3.org/2000/svg" width="18.423" height="18.419" viewBox="0 0 18.423 18.419">
  <path id="Icon_awesome-instagram" data-name="Icon awesome-instagram" d="M9.208,6.725a4.722,4.722,0,1,0,4.722,4.722A4.715,4.715,0,0,0,9.208,6.725Zm0,7.793a3.07,3.07,0,1,1,3.07-3.07,3.076,3.076,0,0,1-3.07,3.07Zm6.017-7.986a1.1,1.1,0,1,1-1.1-1.1A1.1,1.1,0,0,1,15.225,6.532ZM18.353,7.65A5.451,5.451,0,0,0,16.865,3.79,5.487,5.487,0,0,0,13.006,2.3c-1.521-.086-6.079-.086-7.6,0A5.479,5.479,0,0,0,1.547,3.786,5.469,5.469,0,0,0,.059,7.645c-.086,1.521-.086,6.079,0,7.6A5.451,5.451,0,0,0,1.547,19.1a5.494,5.494,0,0,0,3.859,1.488c1.521.086,6.079.086,7.6,0A5.451,5.451,0,0,0,16.865,19.1a5.487,5.487,0,0,0,1.488-3.859c.086-1.521.086-6.075,0-7.6Zm-1.965,9.227a3.108,3.108,0,0,1-1.751,1.751c-1.212.481-4.089.37-5.429.37s-4.221.107-5.429-.37a3.108,3.108,0,0,1-1.751-1.751c-.481-1.212-.37-4.089-.37-5.429s-.107-4.221.37-5.429A3.108,3.108,0,0,1,3.779,4.267c1.212-.481,4.089-.37,5.429-.37s4.221-.107,5.429.37a3.108,3.108,0,0,1,1.751,1.751c.481,1.212.37,4.089.37,5.429S16.869,15.668,16.389,16.877Z" transform="translate(0.005 -2.238)" fill="#f2e232"/>
</svg>
