<svg xmlns="http://www.w3.org/2000/svg" width="281.591" height="50.395" viewBox="0 0 281.591 50.395">
  <path id="Union_3" data-name="Union 3" d="M326.905,48.943a5.021,5.021,0,0,1-2.025-1.579,6.024,6.024,0,0,1-1.062-3.408,10.3,10.3,0,0,1,.741-3.878,48.849,48.849,0,0,1,2.172-5.137q.286-.588.586-1.18a7.722,7.722,0,0,1-3.6.909,5.328,5.328,0,0,1-4-1.334,4.321,4.321,0,0,1-1.185-3.358,35.434,35.434,0,0,1-3.6,3.185,6.675,6.675,0,0,1-2.864,1.457,5.113,5.113,0,0,1-2.049-.222,4.9,4.9,0,0,1-1.827-1.062,5.425,5.425,0,0,1-1.308-1.851,6.327,6.327,0,0,1-.494-2.593,10.235,10.235,0,0,1,.518-3.038l.04-.127a6.453,6.453,0,0,1-3.994,1.974,3.09,3.09,0,0,1-2.674-1.763,5.73,5.73,0,0,1-.616-2.7,9.039,9.039,0,0,1,.322-2.351l.47-1.177a45.387,45.387,0,0,0-5.376,7.083,47.648,47.648,0,0,0-4.2,8.434,6.593,6.593,0,0,1-1.057-.294,6.9,6.9,0,0,1-2.233-1.44,3.794,3.794,0,0,1-1.235-2.587,11.716,11.716,0,0,1,.447-2.463,26.948,26.948,0,0,1-2.155,2.279,19.141,19.141,0,0,1-3.8,2.79,11.5,11.5,0,0,1-4.494,1.408,9.243,9.243,0,0,1-3.554-.173,6.315,6.315,0,0,1-2.543-1.309,5.678,5.678,0,0,1-1.531-2.173,7.059,7.059,0,0,1-.448-1.722,21.73,21.73,0,0,1-1.774,1.746,18.527,18.527,0,0,1-3.382,2.371,7.96,7.96,0,0,1-3.6,1.013A4.752,4.752,0,0,1,256.6,34q-1.185-.766-1.382-3.284a8.386,8.386,0,0,1,.212-2.312q-.661.435-1.4.828a6.943,6.943,0,0,1-3.309.841,5.278,5.278,0,0,1-1.926-.345,16.519,16.519,0,0,1-3.678,3.522,6.958,6.958,0,0,1-3.925,1.367,4.713,4.713,0,0,1-1.753-.346,4.961,4.961,0,0,1-1.654-1.136,7.285,7.285,0,0,1-1.7-2.544q-.134-.351-.233-.706-.863.859-1.865,1.693a14.741,14.741,0,0,1-2.222,1.531,13.444,13.444,0,0,1-2.493,1.086,8.772,8.772,0,0,1-2.691.42,2.843,2.843,0,0,1-2.863-1.457,6.375,6.375,0,0,1-.445-3.531,13.908,13.908,0,0,1,1.382-4.716,25.7,25.7,0,0,1,3.259-5.063,6.674,6.674,0,0,0,.691-.864q.394-.568.641-.864-.987.987-2.69,2.617a39.194,39.194,0,0,0-3.48,3.852A15.769,15.769,0,0,0,221.8,26.1q-.741.964-1.58,2.075t-1.753,2.248q-.914,1.136-1.753,2.049a18.466,18.466,0,0,1-1.531,1.506,1.979,1.979,0,0,1-1.136.593,5.242,5.242,0,0,1-3.481-1.136,3.733,3.733,0,0,1-1.358-3.013A6.041,6.041,0,0,1,209.8,28q.64-1.283,1.679-3.112t2.073-3.58q1.037-1.753,1.828-3.136a10.191,10.191,0,0,0,.888-1.779q-1.086,1.138-2.543,2.913t-3.061,3.8q-1.6,2.026-3.21,4.075t-2.986,3.68q-1.383,1.63-2.444,2.667t-1.556,1.037a4.488,4.488,0,0,1-3.135-1.013,3.272,3.272,0,0,1-.959-1.54,15.485,15.485,0,0,1-2.571,1.712,7.742,7.742,0,0,1-3.653.939,5.326,5.326,0,0,1-4-1.334,4.321,4.321,0,0,1-1.185-3.358,35.442,35.442,0,0,1-3.6,3.185,6.672,6.672,0,0,1-2.863,1.457,5.111,5.111,0,0,1-2.049-.222,4.892,4.892,0,0,1-1.828-1.062,5.455,5.455,0,0,1-1.308-1.851,6.346,6.346,0,0,1-.493-2.593,10.2,10.2,0,0,1,.518-3.038,18.48,18.48,0,0,1,1.654-3.63,16.524,16.524,0,0,1,4-4.791,18.64,18.64,0,0,1,4.049-2.469,13.916,13.916,0,0,1,4.345-1.037,4.209,4.209,0,0,1,1.233.2,5.111,5.111,0,0,1,1.284.617,5.323,5.323,0,0,1,1.161,1.038,5.56,5.56,0,0,1,.864,1.456,4.786,4.786,0,0,0,1.037-1.778,4.48,4.48,0,0,0-.074-.692.746.746,0,0,1,.173-.691.71.71,0,0,1,.741-.247,1.95,1.95,0,0,1,.4.149,11.259,11.259,0,0,1,1.63,1.234,4.683,4.683,0,0,1,.987,1.309,2.1,2.1,0,0,1,.149,1.606,5.509,5.509,0,0,1-.79,1.555q-.642.964-1.482,2.124t-1.7,2.4a18.03,18.03,0,0,0-1.433,2.4,8.233,8.233,0,0,0-.741,2.124,1.6,1.6,0,0,0,.371,1.506,1.893,1.893,0,0,0,1.382.593,3.289,3.289,0,0,0,1.284-.3,7.426,7.426,0,0,0,1.382-.791q.692-.492,1.407-1.111l.083-.072q.107-.268.237-.545.642-1.283,1.556-2.84t1.8-3.137q.888-1.58,1.579-3.037a10.309,10.309,0,0,0,.889-2.593.929.929,0,0,0-.37-.84,2.1,2.1,0,0,1-.568-.642c-.1-.3-.067-.51.1-.642a1.188,1.188,0,0,1,.494-.248,9.384,9.384,0,0,1,2.469.3,4.407,4.407,0,0,1,1.728.914,2.411,2.411,0,0,1,.79,1.95,5.06,5.06,0,0,1-.4,1.877q-.84,2.222-1.827,4.273t-1.8,3.654q-.815,1.606-1.333,2.569a3.679,3.679,0,0,0-.47,1.012,6.116,6.116,0,0,0,.939-1.185q.888-1.233,2.247-3.086t3.012-4.025q1.654-2.173,3.258-4.025t2.914-3.087q1.307-1.233,2.049-1.136c.1,0,.411.009.937.025a5.891,5.891,0,0,1,1.679.321,4.538,4.538,0,0,1,1.6.938,2.4,2.4,0,0,1,.716,1.877,5.061,5.061,0,0,1-.4,1.877q-.888,2.222-1.852,4.273t-1.777,3.654q-.815,1.606-1.358,2.569a3.7,3.7,0,0,0-.494,1.012,5.483,5.483,0,0,0,.963-1.061q.914-1.113,2.346-2.816t3.159-3.729q1.728-2.024,3.457-3.877t3.234-3.211a9.807,9.807,0,0,1,2.444-1.753,1.426,1.426,0,0,1,.864.123,3.682,3.682,0,0,1,1.259.741,3.588,3.588,0,0,1,.939,1.358,2.484,2.484,0,0,1-.1,1.926,15.017,15.017,0,0,1-1.012,2.051q-.766,1.359-1.6,2.913t-1.506,3.112a7.109,7.109,0,0,0-.667,2.741,1.9,1.9,0,0,0,.544,1.481.952.952,0,0,0,.939.3,3.929,3.929,0,0,0,1.283-.494,11.175,11.175,0,0,0,1.457-1.013q.764-.617,1.506-1.309.5-.47,1.016-1a11.122,11.122,0,0,1,1.279-4.283,19.407,19.407,0,0,1,3.258-4.545,18.308,18.308,0,0,1,4.246-3.309,8.78,8.78,0,0,1,4.222-1.284,4.545,4.545,0,0,1,1.58.273,3.485,3.485,0,0,1,1.283.818,4.708,4.708,0,0,1,1.185,1.956,8.1,8.1,0,0,1,.346,2.4,13.052,13.052,0,0,1-.642,3.889,20.815,20.815,0,0,1-1.728,3.989,1.243,1.243,0,0,0,.741.248.8.8,0,0,0,.4,0,7.885,7.885,0,0,0,2.32-.5,13.725,13.725,0,0,0,2.183-1.028q.525-1.418,1.248-2.962,1.111-2.371,2.568-4.89t2.937-4.889a5.44,5.44,0,0,1-.963.1h-.814a5.6,5.6,0,0,1-1.432-.149,2,2,0,0,1-.84-.419,1.79,1.79,0,0,1-.445-.617,4.371,4.371,0,0,1-.246-.79q-.1-.444.049-.593a.284.284,0,0,1,.2-.1c.131,0,.2.057.2.173s.081.206.246.272a2.555,2.555,0,0,0,.617.147,6.163,6.163,0,0,0,.814.05,15.968,15.968,0,0,0,1.877-.123q1.037-.122,2.172-.321,1.185-1.826,2.246-3.408t1.877-2.816q.814-1.233,1.308-2.024a4.462,4.462,0,0,0,.542-1.038.522.522,0,0,0,0-.445.97.97,0,0,1-.1-.444.45.45,0,0,1,.32-.346.838.838,0,0,1,.568,0,4.548,4.548,0,0,1,1.087.642,4.992,4.992,0,0,1,.765.864,2.114,2.114,0,0,1,.371,1.259,5.266,5.266,0,0,1-.049.667,2.421,2.421,0,0,1-.248.765q-.345.743-1.16,2.174t-1.951,3.358c.856-.1,1.613-.155,2.272-.173a3.96,3.96,0,0,1,1.481.173,1.634,1.634,0,0,1,.741.717,3.884,3.884,0,0,1,.419,1.062,2.891,2.891,0,0,1,.074.963q-.05.419-.246.419a.217.217,0,0,1-.247-.247c0-.165-.117-.28-.346-.346-.166-.033-.395-.083-.692-.149a6.4,6.4,0,0,0-.963-.149c-.379-.032-.831-.05-1.358-.05q-1.036,0-2.518.149-1.334,2.272-2.69,4.766t-2.469,4.791a40.873,40.873,0,0,0-1.8,4.272A10.255,10.255,0,0,0,261,29.189a1.812,1.812,0,0,0,.445,1.334,1.424,1.424,0,0,0,1.628.1,9.7,9.7,0,0,0,2.271-1.457,26.088,26.088,0,0,0,2.543-2.419q.309-.333.609-.665.107-.454.255-.916a15.156,15.156,0,0,1,1.63-3.433,24.169,24.169,0,0,1,3.309-4.2,19.562,19.562,0,0,1,1.6-1.432,10.864,10.864,0,0,1,1.827-1.185,6.865,6.865,0,0,1,2-.667,5.186,5.186,0,0,1,2.073.075c.131.033.378.116.741.247a7.172,7.172,0,0,1,1.136.543,3.846,3.846,0,0,1,1.038.889,2.278,2.278,0,0,1,.493,1.334,5.319,5.319,0,0,1-.246,1.8,7.594,7.594,0,0,1-.939,2,10.752,10.752,0,0,1-1.629,1.926,9.032,9.032,0,0,1-2.321,1.581,12.506,12.506,0,0,1-3.481,1.259,7.364,7.364,0,0,1-2.394.123,8.809,8.809,0,0,0-.346,2.371,4.4,4.4,0,0,0,.3,1.729,2.945,2.945,0,0,0,.79,1.111,2.663,2.663,0,0,0,1.086.568,3.386,3.386,0,0,0,1.135.1,9.183,9.183,0,0,0,3.16-.987,21.293,21.293,0,0,0,3.333-2.1,29.253,29.253,0,0,0,3.135-2.766,22.228,22.228,0,0,0,2.468-2.939l.018.01a27.6,27.6,0,0,1,2.362-4.385q1.969-2.822,3.791-2.822a4,4,0,0,1,3.172,1.205,3.073,3.073,0,0,1,.617,1.205,63.941,63.941,0,0,0-5.376,8.816q.97-1.529,2.438-3.5a84.851,84.851,0,0,1,6.845-8.141,4.351,4.351,0,0,1,2.732-.882,4.838,4.838,0,0,1,3.379,1.147,1.932,1.932,0,0,1,.529.91q0,.353-1.2,1.617a18.5,18.5,0,0,0-1.939,2.2,5.6,5.6,0,0,0-1.381,2.939q0,.764.852.765a4.859,4.859,0,0,0,2.5-1l.073-.05q.237-.456.51-.931a16.51,16.51,0,0,1,4-4.791,18.612,18.612,0,0,1,4.048-2.469,13.916,13.916,0,0,1,4.345-1.037,4.216,4.216,0,0,1,1.235.2,5.128,5.128,0,0,1,1.284.617,5.343,5.343,0,0,1,1.16,1.038,5.5,5.5,0,0,1,.864,1.456,4.78,4.78,0,0,0,1.038-1.778,4.511,4.511,0,0,0-.075-.692.744.744,0,0,1,.174-.691.707.707,0,0,1,.739-.247,1.9,1.9,0,0,1,.4.149,11.2,11.2,0,0,1,1.63,1.234,4.686,4.686,0,0,1,.988,1.309,2.093,2.093,0,0,1,.147,1.606,5.449,5.449,0,0,1-.79,1.555q-.642.964-1.481,2.124t-1.7,2.4a17.9,17.9,0,0,0-1.432,2.4,8.152,8.152,0,0,0-.741,2.124,1.6,1.6,0,0,0,.37,1.506,1.9,1.9,0,0,0,1.383.593,3.284,3.284,0,0,0,1.283-.3,7.433,7.433,0,0,0,1.383-.791q.6-.429,1.223-.954,1.442-2.511,2.726-4.726,1.431-2.468,2.468-4.247a11.357,11.357,0,0,0,1.186-2.42,4.49,4.49,0,0,1,.173-.419c.082-.181.155-.371.222-.568a2.624,2.624,0,0,0,.123-.568.376.376,0,0,0-.123-.371,1.518,1.518,0,0,1-.371-.715c-.082-.313.107-.47.568-.47a2.293,2.293,0,0,1,1.481.4,3.876,3.876,0,0,1,1.038,1.309,5.961,5.961,0,0,1,.493,2.741,5.164,5.164,0,0,1-.147,1.136q.888-.938,1.851-1.8a19.23,19.23,0,0,1,1.975-1.555,12.979,12.979,0,0,1,2-1.136,6.324,6.324,0,0,1,1.975-.544,3.029,3.029,0,0,1,3.013,1.309,6.8,6.8,0,0,1,1.036,3.927,12.958,12.958,0,0,1-.445,3.21,16.005,16.005,0,0,1-1.334,3.433A18.073,18.073,0,0,1,347.692,30q-.133.156-.27.31a30.273,30.273,0,0,0,8.632-6.959q.759-1.355,1.437-2.71,1.086-2.222,1.63-3.284a8.177,8.177,0,0,0,.592-1.309,1.244,1.244,0,0,0-.222-.741.831.831,0,0,1-.074-.84.682.682,0,0,1,.641-.346,2.382,2.382,0,0,1,.445.05,7.15,7.15,0,0,1,1.827.79,4.455,4.455,0,0,1,1.235,1.061,2.123,2.123,0,0,1,.494,1.507,4.451,4.451,0,0,1-.445,1.334q-.4.84-.988,1.877t-1.283,2.2q-.692,1.161-1.259,2.3a22.189,22.189,0,0,0-.963,2.2,5.428,5.428,0,0,0-.395,1.852,1.7,1.7,0,0,0,.592,1.382,1.557,1.557,0,0,0,1.136.173,4.3,4.3,0,0,0,1.358-.544,9.789,9.789,0,0,0,1.457-1.061q.741-.642,1.432-1.334.425-.425.857-.9.119-.557.3-1.149a18.539,18.539,0,0,1,1.654-3.63,16.526,16.526,0,0,1,4-4.791,18.609,18.609,0,0,1,4.048-2.469,13.916,13.916,0,0,1,4.345-1.037,4.216,4.216,0,0,1,1.235.2,5.147,5.147,0,0,1,1.284.617,5.341,5.341,0,0,1,1.16,1.038,5.53,5.53,0,0,1,.864,1.456,4.8,4.8,0,0,0,1.038-1.778,4.513,4.513,0,0,0-.075-.692.746.746,0,0,1,.173-.691.71.71,0,0,1,.74-.247,1.949,1.949,0,0,1,.4.149,11.2,11.2,0,0,1,1.63,1.234,4.686,4.686,0,0,1,.988,1.309,2.1,2.1,0,0,1,.147,1.606,5.5,5.5,0,0,1-.789,1.555q-.644.964-1.482,2.124t-1.7,2.4a17.9,17.9,0,0,0-1.432,2.4,8.2,8.2,0,0,0-.742,2.124,1.6,1.6,0,0,0,.371,1.506,1.9,1.9,0,0,0,1.382.593,3.284,3.284,0,0,0,1.284-.3,7.433,7.433,0,0,0,1.383-.791q.69-.492,1.406-1.111t1.358-1.259q1.482-1.53,3.013-3.458l1.531.889h.048q-1.135,1.582-2.492,3.334a26,26,0,0,1-2.939,3.211,15.9,15.9,0,0,1-3.357,2.4,7.742,7.742,0,0,1-3.653.939,5.328,5.328,0,0,1-4-1.334,4.321,4.321,0,0,1-1.185-3.358,35.559,35.559,0,0,1-3.6,3.185,6.681,6.681,0,0,1-2.864,1.457,5.113,5.113,0,0,1-2.049-.222,4.879,4.879,0,0,1-1.827-1.062,5.425,5.425,0,0,1-1.308-1.851,5.367,5.367,0,0,1-.331-1.014,18.948,18.948,0,0,1-2.829,2.421,9.964,9.964,0,0,1-4.938,1.779,3.287,3.287,0,0,1-1.654-.222,5.308,5.308,0,0,1-1.334-.79,3.951,3.951,0,0,1-.912-1.062,5.1,5.1,0,0,1-.494-1.086,4.2,4.2,0,0,1,.05-2.3q.03-.11.063-.222c-5.341,4.785-13.735,8.539-18.06,4.149a6.539,6.539,0,0,1-1.259-1.73q-.888,1.778-1.753,3.556t-1.529,3.481a27.882,27.882,0,0,0-1.062,3.26,11.632,11.632,0,0,0-.395,2.84,4.147,4.147,0,0,0,1.432,3.457q.692.3.518.816c-.116.345-.419.518-.913.518q-.345,0-1.383.024h-.11A5.453,5.453,0,0,1,326.905,48.943ZM379.167,17.78a10.324,10.324,0,0,0-2.518,1.555,16.165,16.165,0,0,0-2.346,2.4,25.714,25.714,0,0,0-1.975,2.816,16.391,16.391,0,0,0-1.358,2.766,6.764,6.764,0,0,0-.494,2.272q0,1.63,1.531,1.581a2.938,2.938,0,0,0,1.605-.717,18.733,18.733,0,0,0,2.049-1.8q1.086-1.085,2.247-2.42t2.147-2.616q.989-1.284,1.778-2.42a20.3,20.3,0,0,0,1.136-1.778.625.625,0,0,0,.05-.544,2.13,2.13,0,0,0-.321-.593,2.4,2.4,0,0,0-.493-.493,2.128,2.128,0,0,0-.568-.3,3.68,3.68,0,0,0-.749-.077A4.394,4.394,0,0,0,379.167,17.78Zm-58.952,0a10.325,10.325,0,0,0-2.518,1.555,16.163,16.163,0,0,0-2.346,2.4,25.718,25.718,0,0,0-1.975,2.816,16.3,16.3,0,0,0-1.357,2.766,6.737,6.737,0,0,0-.494,2.272q0,1.63,1.531,1.581a2.938,2.938,0,0,0,1.6-.717,18.728,18.728,0,0,0,2.049-1.8q1.086-1.085,2.247-2.42t2.148-2.616q.987-1.284,1.777-2.42a20.042,20.042,0,0,0,1.136-1.778.625.625,0,0,0,.05-.544,2.125,2.125,0,0,0-.32-.593,2.382,2.382,0,0,0-.494-.493,2.127,2.127,0,0,0-.568-.3,3.672,3.672,0,0,0-.748-.077A4.4,4.4,0,0,0,320.215,17.78Zm-133.572,0a10.31,10.31,0,0,0-2.519,1.555,16.212,16.212,0,0,0-2.345,2.4,25.72,25.72,0,0,0-1.975,2.816,16.394,16.394,0,0,0-1.358,2.766,6.738,6.738,0,0,0-.494,2.272q0,1.63,1.531,1.581a2.941,2.941,0,0,0,1.605-.717,18.833,18.833,0,0,0,2.049-1.8q1.084-1.085,2.246-2.42t2.148-2.616q.987-1.284,1.778-2.42a20.31,20.31,0,0,0,1.136-1.778.628.628,0,0,0,.049-.544,2.158,2.158,0,0,0-.321-.593,2.383,2.383,0,0,0-.494-.493,2.112,2.112,0,0,0-.568-.3,3.673,3.673,0,0,0-.748-.077A4.394,4.394,0,0,0,186.643,17.78Zm158.851,1.135a4.317,4.317,0,0,0-1.506.569,11.085,11.085,0,0,0-1.678,1.21,21.515,21.515,0,0,0-1.655,1.581,46.976,46.976,0,0,0-4.048,4.692.138.138,0,0,1-.05.1.746.746,0,0,0-.147.2l-.692,1.235a2.132,2.132,0,0,0,0,1.432q.246.741,1.778.988a3.1,3.1,0,0,0,1.827-.321,10.177,10.177,0,0,0,2.123-1.334,21.774,21.774,0,0,0,2.149-1.975,18.732,18.732,0,0,0,1.876-2.3,13.94,13.94,0,0,0,1.307-2.321,5.175,5.175,0,0,0,.494-2.025,1.85,1.85,0,0,0-.592-1.432,1.429,1.429,0,0,0-.919-.316A1.907,1.907,0,0,0,345.494,18.915Zm-100.912-.394a19.177,19.177,0,0,0-1.951,2.346,13.393,13.393,0,0,0-1.456,2.643,6.988,6.988,0,0,0-.568,2.667,4.046,4.046,0,0,0,1.136,2.913,2.451,2.451,0,0,0,1.777.79,3.109,3.109,0,0,0,1.531-.445,5.686,5.686,0,0,0,1.481-1.234,5.467,5.467,0,0,1-1.308-2.223,8.726,8.726,0,0,1-.37-2.518,12.211,12.211,0,0,1,.567-3.68,16.279,16.279,0,0,1,1.26-3.038A13.287,13.287,0,0,0,244.582,18.521Zm3.506-.149a9.85,9.85,0,0,0-.766,4.247,5.269,5.269,0,0,0,.345,1.753,4.958,4.958,0,0,0,.692,1.211,16.043,16.043,0,0,0,1.579-3.508,11.417,11.417,0,0,0,.593-3.408,3.5,3.5,0,0,0-.84-2.568.044.044,0,0,1-.049-.05A7.915,7.915,0,0,0,248.088,18.372Zm32.117-.765a13.652,13.652,0,0,0-2.074,1.6,18.215,18.215,0,0,0-2.222,2.47,16.031,16.031,0,0,0-1.827,3.061,9.734,9.734,0,0,0,2.246-.691,8.906,8.906,0,0,0,2.888-2.024,11.665,11.665,0,0,0,1.63-1.951,6.846,6.846,0,0,0,.741-1.482,2.39,2.39,0,0,0,.147-.987,1.3,1.3,0,0,0-.147-.518.672.672,0,0,0-.074,0A2.914,2.914,0,0,0,280.2,17.607Zm-142.868,30.2a80.568,80.568,0,0,1-13.848-15.241c-5.464-7.513-10.249-17.1-7.858-26.623A8.035,8.035,0,0,1,126.439.572c7.984,3.112,13.147,10.624,17.1,17.856,2.367,4.776,4.711,9.875,4.6,15.331-.135,2.964-.768,6.082-2.759,8.406a3.561,3.561,0,0,1-5.493.263c-2.866-3.677-2.52-9.025-.825-13.119a16.031,16.031,0,0,0,.388,8.357c1.181,3.649,3.553,5.436,4.766.63a14.82,14.82,0,0,0-.25-7.631A50.354,50.354,0,0,0,128.674,8.692c-4.321-3.507-8.2-1.594-7.023,4.774a46.515,46.515,0,0,0,1.795,6.372,71.071,71.071,0,0,0,4.476,10.022,72.653,72.653,0,0,0,6.391,10.94c1.417,1.909,2.979,3.711,4.563,5.485,1.2,1.479,1.549,1.413,3.129.459a38.2,38.2,0,0,0,7.8-6.049c5.661-5.725,10.244-13.251,10.681-21.449.1-11.762-9.182-5.054-12.735.765a28.3,28.3,0,0,0-2.8-5.39c4.051-3.536,10.835-8.2,15.88-3.927a8.443,8.443,0,0,1,2.349,5.595c.314,8.144-3.853,15.606-8.774,21.769a50.5,50.5,0,0,1-12.1,10.6,3.546,3.546,0,0,1-2.028.71A4.154,4.154,0,0,1,137.337,47.805ZM361.964,12.01a2.743,2.743,0,0,1,.426-1.136q.738-1.476,1.192-2.5a8.52,8.52,0,0,0,.852-3.207,3.307,3.307,0,0,0-.085-.739,1.682,1.682,0,0,1,.539-.086,4.223,4.223,0,0,1,2.071.681,4.715,4.715,0,0,1,1.022.823,2.487,2.487,0,0,1,.737,1.647,7.12,7.12,0,0,1-1.361,3.265,4.052,4.052,0,0,1-1.249,1.334,4.807,4.807,0,0,1-2.725.881Q361.964,12.976,361.964,12.01Z" transform="translate(-114.498 0.53)" fill="#f2e232" stroke="rgba(0,0,0,0)" stroke-miterlimit="10" stroke-width="1"/>
</svg>
